<svg xmlns="http://www.w3.org/2000/svg" viewBox="0 0 32 32" enable-background="new 0 0 32 32">
    <path style="text-indent:0;text-align:start;line-height:normal;text-transform:none;block-progression:tb;-inkscape-font-specification:Bitstream Vera Sans" d="M 9 6 L 9 7 L 9 20 L 7 20 L 7 22 L 9 22 L 9 26 L 11 26 L 11 22 L 17 22 L 17 20 L 11 20 L 11 17 L 18.5 17 C 21.525577 17 24 14.525577 24 11.5 C 24 8.4744232 21.525577 6 18.5 6 L 10 6 L 9 6 z M 11 8 L 18.5 8 C 20.444423 8 22 9.5555768 22 11.5 C 22 13.444423 20.444423 15 18.5 15 L 11 15 L 11 8 z" color="#000" overflow="visible" enable-background="accumulate" font-family="Bitstream Vera Sans"/>
</svg>